PathFileType	4	(X/Y/Z)	E:/New_biomech_experiments/27_06_2024_Shreyas_Arm26_updated ground/Afternoon session/Neeraj_PP_27_6_24_elbow_flexion_t01.trc										
DataRate	CameraRate	NumFrames	NumMarkers	Units	OrigDataRate	OrigDataStartFrame	OrigNumFrames						
120	120	91	4	m	120	4894	6524						
Frame#	Time	r_acromion			r_humerus_epicondyle			r_radius_styloid			RHAND		
		X1	Y1	Z1	X2	Y2	Z2	X3	Y3	Z3	X4	Y4	Z4
													
4894	40.775	-0.01313	0.87669	0.23722	-0.03328	0.53497	0.26079	0.234	0.54075	0.25109	0.31583	0.5687	0.20355
4895	40.783	-0.0131	0.87672	0.23723	-0.03324	0.535	0.26083	0.23405	0.54079	0.25109	0.31587	0.56874	0.20353
4896	40.792	-0.01306	0.87674	0.23725	-0.0332	0.53502	0.26087	0.23409	0.54083	0.25109	0.3159	0.56878	0.20352
4897	40.8	-0.01301	0.87675	0.23727	-0.03315	0.53505	0.26091	0.23414	0.54086	0.25109	0.31594	0.56882	0.20351
4898	40.808	-0.01296	0.87676	0.23729	-0.03311	0.53508	0.26094	0.23418	0.54089	0.25109	0.31598	0.56885	0.2035
4899	40.817	-0.0129	0.87675	0.23732	-0.03307	0.53511	0.26097	0.23422	0.54091	0.25109	0.31602	0.56888	0.20349
4900	40.825	-0.01284	0.87674	0.23735	-0.03303	0.53514	0.261	0.23426	0.54094	0.25109	0.31606	0.5689	0.20349
4901	40.833	-0.01279	0.87676	0.23737	-0.03299	0.53517	0.26103	0.2343	0.54096	0.25109	0.31609	0.56892	0.20348
4902	40.842	-0.01276	0.87679	0.23738	-0.03296	0.53519	0.26106	0.23433	0.54098	0.25109	0.31612	0.56894	0.20347
4903	40.85	-0.01273	0.87682	0.23739	-0.03292	0.53522	0.26109	0.23436	0.541	0.25109	0.31615	0.56897	0.20345
4904	40.858	-0.01269	0.87683	0.23741	-0.03289	0.53524	0.26111	0.23439	0.54102	0.25109	0.31618	0.56899	0.20344
4905	40.867	-0.01265	0.87684	0.23743	-0.03286	0.53525	0.26114	0.23442	0.54104	0.25108	0.3162	0.56901	0.20343
4906	40.875	-0.01263	0.87686	0.23744	-0.03284	0.53527	0.26117	0.23444	0.54107	0.25108	0.31622	0.56903	0.20341
4907	40.883	-0.0126	0.87688	0.23745	-0.03282	0.53529	0.2612	0.23447	0.54109	0.25108	0.31623	0.56905	0.20339
4908	40.892	-0.01257	0.87688	0.23747	-0.0328	0.5353	0.26123	0.23449	0.54111	0.25108	0.31624	0.56906	0.20337
4909	40.9	-0.01253	0.87688	0.2375	-0.03278	0.53531	0.26126	0.23451	0.54112	0.25107	0.31626	0.56907	0.20335
4910	40.908	-0.01251	0.87688	0.23752	-0.03277	0.53533	0.26128	0.23453	0.54113	0.25107	0.31627	0.56907	0.20333
4911	40.917	-0.0125	0.87689	0.23754	-0.03275	0.53534	0.26131	0.23455	0.54113	0.25107	0.31628	0.56907	0.20332
4912	40.925	-0.0125	0.87692	0.23755	-0.03274	0.53535	0.26133	0.23456	0.54113	0.25107	0.3163	0.56905	0.20331
4913	40.933	-0.01249	0.87693	0.23756	-0.03272	0.53536	0.26136	0.23457	0.54112	0.25107	0.31631	0.56903	0.2033
4914	40.942	-0.01248	0.87693	0.23759	-0.03272	0.53537	0.26138	0.23459	0.5411	0.25107	0.31633	0.56899	0.20329
4915	40.95	-0.01246	0.87691	0.23762	-0.03271	0.53538	0.26139	0.2346	0.54107	0.25108	0.31634	0.56895	0.20329
4916	40.958	-0.01244	0.8769	0.23764	-0.0327	0.53538	0.26141	0.2346	0.54104	0.25108	0.31635	0.5689	0.20329
4917	40.967	-0.01243	0.87689	0.23766	-0.03269	0.53539	0.26143	0.23461	0.54099	0.25109	0.31636	0.56883	0.2033
4918	40.975	-0.01243	0.87689	0.23768	-0.03269	0.53539	0.26144	0.23462	0.54094	0.2511	0.31637	0.56876	0.20331
4919	40.983	-0.01242	0.87688	0.2377	-0.03269	0.53539	0.26145	0.23463	0.54088	0.25111	0.31638	0.56868	0.20331
4920	40.992	-0.01242	0.87688	0.23771	-0.03269	0.53539	0.26146	0.23463	0.54081	0.25112	0.31639	0.56859	0.20332
4921	41	-0.01242	0.87687	0.23773	-0.0327	0.53539	0.26147	0.23464	0.54074	0.25114	0.31641	0.56849	0.20333
4922	41.008	-0.01242	0.87687	0.23774	-0.0327	0.53538	0.26148	0.23464	0.54066	0.25115	0.31643	0.56837	0.20334
4923	41.017	-0.01242	0.87686	0.23775	-0.0327	0.53538	0.26148	0.23465	0.54056	0.25116	0.31645	0.56824	0.20335
4924	41.025	-0.01243	0.87686	0.23776	-0.03271	0.53537	0.26148	0.23465	0.54046	0.25117	0.31647	0.5681	0.20337
4925	41.033	-0.01243	0.87685	0.23776	-0.03271	0.53536	0.26148	0.23466	0.54035	0.25117	0.3165	0.56794	0.20339
4926	41.042	-0.01244	0.87685	0.23777	-0.03271	0.53536	0.26148	0.23467	0.54022	0.25118	0.31653	0.56777	0.20342
4927	41.05	-0.01245	0.87684	0.23777	-0.03272	0.53535	0.26148	0.23468	0.54008	0.2512	0.31657	0.56759	0.20344
4928	41.058	-0.01245	0.87683	0.23778	-0.03272	0.53534	0.26147	0.23468	0.53993	0.25121	0.3166	0.5674	0.20348
4929	41.067	-0.01246	0.87682	0.23778	-0.03273	0.53533	0.26147	0.23469	0.53978	0.25123	0.31663	0.5672	0.20351
4930	41.075	-0.01247	0.87681	0.23778	-0.03273	0.53531	0.26146	0.23469	0.53962	0.25124	0.31667	0.567	0.20354
4931	41.083	-0.01247	0.8768	0.23778	-0.03274	0.5353	0.26145	0.23469	0.53945	0.25126	0.31669	0.56679	0.20356
4932	41.092	-0.01248	0.87679	0.23778	-0.03276	0.53528	0.26144	0.23469	0.53929	0.25127	0.31672	0.56658	0.20358
4933	41.1	-0.01249	0.87678	0.23778	-0.03278	0.53526	0.26142	0.23469	0.53912	0.25129	0.31675	0.56637	0.2036
4934	41.108	-0.0125	0.87677	0.23778	-0.0328	0.53525	0.26141	0.23468	0.53895	0.2513	0.31677	0.56615	0.20361
4935	41.117	-0.01252	0.87675	0.23777	-0.03282	0.53523	0.26139	0.23468	0.53877	0.2513	0.31679	0.56592	0.20361
4936	41.125	-0.01253	0.87674	0.23777	-0.03284	0.53522	0.26137	0.23466	0.5386	0.25131	0.3168	0.56569	0.20362
4937	41.133	-0.01255	0.87673	0.23776	-0.03287	0.5352	0.26135	0.23465	0.53841	0.25131	0.31682	0.56546	0.20363
4938	41.142	-0.01257	0.87671	0.23775	-0.0329	0.53518	0.26133	0.23463	0.53823	0.25131	0.31683	0.56523	0.20364
4939	41.15	-0.01259	0.8767	0.23774	-0.03292	0.53516	0.2613	0.23462	0.53803	0.25132	0.31684	0.56499	0.20366
4940	41.158	-0.01261	0.87669	0.23773	-0.03296	0.53514	0.26128	0.2346	0.53784	0.25131	0.31685	0.56475	0.20367
4941	41.167	-0.01264	0.87667	0.23771	-0.03299	0.53512	0.26125	0.23458	0.53765	0.25131	0.31686	0.5645	0.20368
4942	41.175	-0.01266	0.87666	0.2377	-0.03302	0.5351	0.26123	0.23456	0.53745	0.25131	0.31686	0.56425	0.2037
4943	41.183	-0.01269	0.87665	0.23768	-0.03306	0.53507	0.2612	0.23453	0.53726	0.2513	0.31685	0.564	0.2037
4944	41.192	-0.01273	0.87665	0.23766	-0.0331	0.53505	0.26116	0.23451	0.53706	0.2513	0.31685	0.56375	0.20371
4945	41.2	-0.01277	0.87665	0.23764	-0.03313	0.53503	0.26113	0.23448	0.53687	0.25129	0.31684	0.5635	0.20372
4946	41.208	-0.01282	0.87665	0.23761	-0.03317	0.535	0.2611	0.23445	0.53667	0.25128	0.31684	0.56324	0.20374
4947	41.217	-0.01287	0.87666	0.23757	-0.03321	0.53498	0.26106	0.23443	0.53647	0.25127	0.31684	0.56299	0.20375
4948	41.225	-0.01292	0.87668	0.23754	-0.03324	0.53496	0.26103	0.2344	0.53627	0.25126	0.31683	0.56273	0.20377
4949	41.233	-0.01296	0.87668	0.23751	-0.03328	0.53493	0.261	0.23438	0.53607	0.25126	0.31683	0.56248	0.20379
4950	41.242	-0.01299	0.87667	0.23748	-0.03332	0.53491	0.26096	0.23435	0.53588	0.25125	0.31683	0.56222	0.20381
4951	41.25	-0.01302	0.87665	0.23745	-0.03335	0.53489	0.26092	0.23433	0.53568	0.25125	0.31683	0.56197	0.20382
4952	41.258	-0.01304	0.87663	0.23743	-0.03339	0.53487	0.26089	0.2343	0.53549	0.25124	0.31683	0.56172	0.20384
4953	41.267	-0.01307	0.87664	0.23739	-0.03343	0.53485	0.26085	0.23428	0.5353	0.25124	0.31683	0.56146	0.20386
4954	41.275	-0.01311	0.87666	0.23734	-0.03347	0.53482	0.26081	0.23426	0.53511	0.25124	0.31683	0.56121	0.20387
4955	41.283	-0.01314	0.87666	0.2373	-0.03351	0.5348	0.26077	0.23424	0.53492	0.25124	0.31683	0.56096	0.20388
4956	41.292	-0.01315	0.87664	0.23727	-0.03355	0.53479	0.26072	0.23422	0.53473	0.25124	0.31683	0.56071	0.20389
4957	41.3	-0.01316	0.87662	0.23723	-0.03358	0.53477	0.26068	0.23419	0.53454	0.25123	0.31682	0.56046	0.20389
4958	41.308	-0.01317	0.8766	0.23719	-0.03362	0.53475	0.26063	0.23417	0.53436	0.25123	0.31682	0.56022	0.20388
4959	41.317	-0.01317	0.87658	0.23716	-0.03366	0.53474	0.26059	0.23415	0.53418	0.25121	0.31681	0.55999	0.20387
4960	41.325	-0.01317	0.87656	0.23712	-0.0337	0.53472	0.26054	0.23412	0.534	0.2512	0.31681	0.55976	0.20386
4961	41.333	-0.01318	0.87654	0.23708	-0.03373	0.53471	0.26049	0.2341	0.53382	0.25118	0.3168	0.55953	0.20384
4962	41.342	-0.01317	0.8765	0.23704	-0.03376	0.53469	0.26043	0.23407	0.53365	0.25116	0.3168	0.55931	0.20383
4963	41.35	-0.01314	0.87644	0.23702	-0.03379	0.53468	0.26038	0.23405	0.53348	0.25114	0.31679	0.55909	0.20381
4964	41.358	-0.01312	0.87638	0.23699	-0.03382	0.53466	0.26033	0.23402	0.53331	0.25111	0.31678	0.55888	0.20378
4965	41.367	-0.0131	0.87634	0.23695	-0.03385	0.53465	0.26027	0.234	0.53314	0.25108	0.31678	0.55867	0.20376
4966	41.375	-0.0131	0.87631	0.2369	-0.03388	0.53463	0.26021	0.23398	0.53298	0.25105	0.31677	0.55847	0.20373
4967	41.383	-0.0131	0.8763	0.23685	-0.03391	0.53461	0.26015	0.23397	0.53283	0.25102	0.31676	0.55828	0.20369
4968	41.392	-0.0131	0.87628	0.23679	-0.03393	0.53459	0.26008	0.23395	0.53268	0.25098	0.31675	0.5581	0.20366
4969	41.4	-0.01308	0.87624	0.23675	-0.03396	0.53457	0.26002	0.23393	0.53255	0.25095	0.31674	0.55793	0.20362
4970	41.408	-0.01306	0.8762	0.2367	-0.03399	0.53455	0.25995	0.23392	0.53242	0.25091	0.31674	0.55777	0.20359
4971	41.417	-0.01305	0.87617	0.23664	-0.03402	0.53453	0.25988	0.2339	0.53229	0.25087	0.31673	0.55761	0.20354
4972	41.425	-0.01304	0.87616	0.23658	-0.03405	0.53452	0.25981	0.23389	0.53217	0.25083	0.31673	0.55744	0.2035
4973	41.433	-0.01304	0.87615	0.23652	-0.03408	0.5345	0.25974	0.23388	0.53205	0.25079	0.31674	0.55728	0.20346
4974	41.442	-0.01303	0.87615	0.23645	-0.0341	0.53449	0.25966	0.23387	0.53192	0.25075	0.31675	0.55712	0.20341
4975	41.45	-0.01304	0.87616	0.23638	-0.03412	0.53448	0.25959	0.23386	0.5318	0.25071	0.31676	0.55695	0.20336
4976	41.458	-0.01304	0.87618	0.2363	-0.03414	0.53448	0.25952	0.23385	0.53167	0.25066	0.31677	0.55678	0.20332
4977	41.467	-0.01305	0.87619	0.23622	-0.03416	0.53447	0.25946	0.23385	0.53154	0.25062	0.31679	0.5566	0.20327
4978	41.475	-0.01306	0.8762	0.23615	-0.03417	0.53446	0.2594	0.23385	0.5314	0.25057	0.3168	0.55641	0.20322
4979	41.483	-0.01306	0.87621	0.23607	-0.03418	0.53444	0.25934	0.23386	0.53126	0.25053	0.31682	0.55621	0.20317
4980	41.492	-0.01307	0.8762	0.23601	-0.03418	0.53443	0.25928	0.23387	0.53111	0.2505	0.31685	0.55601	0.20313
4981	41.5	-0.01306	0.8762	0.23595	-0.03418	0.53442	0.25922	0.23388	0.53096	0.25046	0.31688	0.55579	0.20309
4982	41.508	-0.01306	0.87619	0.2359	-0.03418	0.53441	0.25917	0.2339	0.53079	0.25044	0.31691	0.55555	0.20306
4983	41.517	-0.01307	0.87619	0.23584	-0.03417	0.5344	0.25912	0.23391	0.53061	0.25042	0.31695	0.5553	0.20304
4984	41.525	-0.01307	0.87619	0.23578	-0.03416	0.53438	0.25907	0.23393	0.53042	0.2504	0.31699	0.55503	0.20302
